<?xml version="1.0" encoding="utf-8"?>
<!-- Generator: Adobe Illustrator 26.5.0, SVG Export Plug-In . SVG Version: 6.00 Build 0)  -->
<svg version="1.1" id="Layer_1" xmlns="http://www.w3.org/2000/svg" xmlns:xlink="http://www.w3.org/1999/xlink" x="0px" y="0px"
	 viewBox="0 0 51.5 49.9" style="enable-background:new 0 0 51.5 49.9;" xml:space="preserve">
<style type="text/css">
	.st0{opacity:0.6;}
	.st1{fill:url(#SVGID_1_);stroke:#E9EFEA;stroke-width:0.5;stroke-miterlimit:10;}
	
		.st2{fill:url(#SVGID_00000060749035962223402220000003964493529957321090_);stroke:#E9EFEA;stroke-width:0.5;stroke-miterlimit:10;}
	.st3{fill:url(#SVGID_00000171698780090073237400000011108548514742346628_);stroke:#E9EFEA;stroke-miterlimit:10;}
</style>
<g id="Layer_3">
</g>
<g id="Layer_2_00000178189891090629184590000012512938806114806691_">
	<g>
		<g>
			<g class="st0">
				
					<radialGradient id="SVGID_1_" cx="25.1038" cy="27.8309" r="22.2598" gradientTransform="matrix(1 0 0 -1 0 52)" gradientUnits="userSpaceOnUse">
					<stop  offset="0" style="stop-color:#85A6E0;stop-opacity:0.6"/>
					<stop  offset="0.5028" style="stop-color:#B98EE0;stop-opacity:0.4"/>
					<stop  offset="0.7055" style="stop-color:#B4A4E3;stop-opacity:0.3185"/>
					<stop  offset="1" style="stop-color:#AACBE7;stop-opacity:0.2"/>
				</radialGradient>
				<path class="st1" d="M8.8,46c-3.5,0-6.2-2.8-6.2-6.2V15.2c0-3.8,1.2-6.9,3.5-9.3s5.3-3.6,9-3.6c4.4,0,7.7,2,10.1,6
					c1.4-2.2,3-3.7,4.6-4.6s3.7-1.4,6.1-1.4c3.8,0,6.8,1.2,8.8,3.6s3.1,5.9,3.1,10.4v23.4c0,3.5-2.8,6.2-6.2,6.2h-6.4V18.2
					c0-1.4-0.1-2.3-0.3-2.7c-0.2-0.4-0.7-0.7-1.3-0.7c-1.3,0-1.9,1.1-1.9,3.2v28H18.8V18.2c0-1.4-0.1-2.3-0.3-2.7
					c-0.2-0.5-0.7-0.7-1.3-0.7c-1.3,0-1.9,1.1-1.9,3.4V46C15.3,46,8.8,46,8.8,46z"/>
			</g>
			
				<radialGradient id="SVGID_00000152972909769841815070000004970072433173118625_" cx="26.516" cy="26.3229" r="22.2361" gradientTransform="matrix(1 0 0 -1 0 52)" gradientUnits="userSpaceOnUse">
				<stop  offset="0" style="stop-color:#95BAE0;stop-opacity:0.6"/>
				<stop  offset="0.5028" style="stop-color:#A6A5E0;stop-opacity:0.4"/>
				<stop  offset="0.8099" style="stop-color:#A8BBE4;stop-opacity:0.2764"/>
				<stop  offset="1" style="stop-color:#AACBE7;stop-opacity:0.2"/>
			</radialGradient>
			
				<path style="fill:url(#SVGID_00000152972909769841815070000004970072433173118625_);stroke:#E9EFEA;stroke-width:0.5;stroke-miterlimit:10;" d="
				M10.2,47.5c-3.5,0-6.2-2.8-6.2-6.2V16.8C4,13,5.2,9.9,7.5,7.5s5.3-3.6,9-3.6c4.4,0,7.7,2,10.1,6c1.4-2.2,3-3.7,4.6-4.6
				s3.7-1.4,6.1-1.4c3.8,0,6.8,1.2,8.8,3.6s3.1,5.9,3.1,10.4v23.4c0,3.5-2.8,6.2-6.2,6.2h-6.4V19.8c0-1.4-0.1-2.3-0.3-2.7
				c-0.2-0.4-0.7-0.7-1.3-0.7c-1.3,0-1.9,1.1-1.9,3.2v28H20.2V19.8c0-1.4-0.1-2.3-0.3-2.7c-0.2-0.5-0.7-0.7-1.3-0.7
				c-1.3,0-1.9,1.1-1.9,3.4v27.8L10.2,47.5L10.2,47.5z"/>
			
				<radialGradient id="SVGID_00000095329159444322762800000008944464854587517616_" cx="27.966" cy="24.7809" r="22.2201" gradientTransform="matrix(1 0 0 -1 0 52)" gradientUnits="userSpaceOnUse">
				<stop  offset="0" style="stop-color:#A5CEE0;stop-opacity:0.6"/>
				<stop  offset="0.5028" style="stop-color:#93BCE0;stop-opacity:0.4"/>
				<stop  offset="0.9818" style="stop-color:#A9CAE7;stop-opacity:0.2073"/>
				<stop  offset="1" style="stop-color:#AACBE7;stop-opacity:0.2"/>
			</radialGradient>
			<path style="fill:url(#SVGID_00000095329159444322762800000008944464854587517616_);stroke:#E9EFEA;stroke-miterlimit:10;" d="
				M11.6,49.1c-3.5,0-6.2-2.8-6.2-6.2V18.3c0-3.8,1.2-6.9,3.5-9.3c2.3-2.5,5.3-3.7,8.9-3.7c4.4,0,7.7,2,10.1,6
				c1.4-2.2,3-3.7,4.6-4.6c1.7-0.9,3.8-1.4,6.2-1.4c3.8,0,6.8,1.2,8.8,3.6s3.1,5.9,3.1,10.4v23.4c0,3.5-2.8,6.2-6.2,6.2H38V21.3
				c0-1.4-0.1-2.3-0.3-2.7c-0.2-0.4-0.7-0.7-1.3-0.7c-1.3,0-1.9,1.1-1.9,3.2v28H21.6V21.3c0-1.4-0.1-2.3-0.3-2.7
				c-0.2-0.5-0.7-0.7-1.3-0.7c-1.3,0-1.9,1.1-1.9,3.4v27.8C18.1,49.1,11.6,49.1,11.6,49.1z"/>
		</g>
	</g>
</g>
</svg>
